<svg width="28" height="25" viewBox="0 0 28 25" fill="none" xmlns="http://www.w3.org/2000/svg">
<path d="M7 25C8.10457 25 9 24.1046 9 23C9 21.8954 8.10457 21 7 21C5.89543 21 5 21.8954 5 23C5 24.1046 5.89543 25 7 25Z" fill="black"/>
<path d="M19 25C20.1046 25 21 24.1046 21 23C21 21.8954 20.1046 21 19 21C17.8954 21 17 21.8954 17 23C17 24.1046 17.8954 25 19 25Z" fill="black"/>
<circle cx="20.5" cy="7.5" r="6.5" stroke="black" stroke-width="2"/>
<path fill-rule="evenodd" clip-rule="evenodd" d="M21.422 13.9351L20.3451 18.2425C20.2339 18.6877 19.8339 19 19.375 19H6.25C5.76422 19 5.34871 18.6509 5.26497 18.1724L3.42747 7.67238L2.7848 4H1C0.447715 4 0 3.55228 0 3C0 2.44772 0.447715 2 1 2H3.625C4.11078 2 4.52629 2.34911 4.61003 2.82762L5.2527 6.5H14.0764C14.0261 6.82597 14 7.15993 14 7.5C14 7.84007 14.0261 8.17403 14.0764 8.5H5.6027L7.0902 17H18.5942L19.3687 13.9019C19.7361 13.9664 20.1141 14 20.5 14C20.813 14 21.1208 13.9779 21.422 13.9351Z" fill="black"/>
</svg>
