<svg xmlns="http://www.w3.org/2000/svg" width="24" height="24"><path style="stroke:none;fill-rule:nonzero;fill:#4309f4;fill-opacity:1" d="M12.238 9.816v4.649h6.586c-.289 1.496-1.156 2.762-2.457 3.613l3.969 3.02c2.316-2.094 3.652-5.172 3.652-8.825 0-.851-.078-1.668-.222-2.457Zm0 0"/><path style="stroke:none;fill-rule:nonzero;fill:#34a853;fill-opacity:1" d="m5.379 14.285-.895.672-3.171 2.422A12.268 12.268 0 0 0 12.238 24c3.305 0 6.075-1.07 8.098-2.902l-3.973-3.02c-1.09.719-2.48 1.156-4.125 1.156-3.183 0-5.886-2.105-6.855-4.941Zm0 0"/><path style="stroke:none;fill-rule:nonzero;fill:#fbbc05;fill-opacity:1" d="M1.313 6.621A11.659 11.659 0 0 0 0 12c0 1.941.477 3.762 1.313 5.379 0 .012 4.074-3.098 4.074-3.098A7.047 7.047 0 0 1 4.997 12c0-.797.144-1.559.39-2.281Zm0 0"/><path style="stroke:none;fill-rule:nonzero;fill:#ea4335;fill-opacity:1" d="M12.238 4.777c1.801 0 3.403.614 4.684 1.79l3.504-3.434C18.3 1.187 15.543 0 12.238 0 7.453 0 3.328 2.695 1.313 6.621l4.07 3.098c.969-2.836 3.672-4.942 6.855-4.942Zm0 0"/></svg>