<svg xmlns="http://www.w3.org/2000/svg" width="25" height="25"><path style="stroke:none;fill-rule:nonzero;fill:#fff;fill-opacity:1" d="M25.008 12.504C25.008 5.594 19.406 0 12.504 0 5.594 0 0 5.594 0 12.504c0 6.238 4.574 11.414 10.55 12.351v-8.738H7.376v-3.613h3.176V9.75c0-3.137 1.863-4.867 4.719-4.867 1.367 0 2.8.242 2.8.242v3.082h-1.574c-1.555 0-2.039.965-2.039 1.95v2.347h3.469l-.555 3.613h-2.914v8.738c5.977-.937 10.55-6.113 10.55-12.351"/><path style="stroke:none;fill-rule:nonzero;fill:#1877f2;fill-opacity:1" d="m17.371 16.117.555-3.613h-3.469v-2.348c0-.984.484-1.949 2.04-1.949h1.573V5.125s-1.433-.242-2.8-.242c-2.856 0-4.72 1.73-4.72 4.867v2.754H7.376v3.613h3.176v8.738c.636.098 1.289.153 1.953.153.664 0 1.316-.055 1.953-.153v-8.738h2.914"/></svg>