<svg width="24" height="24" viewBox="0 0 24 24" fill="none" xmlns="http://www.w3.org/2000/svg">
<path d="M12 3C10.8065 3 9.66193 3.47411 8.81802 4.31802C7.97411 5.16193 7.5 6.30653 7.5 7.5H9C9 6.70435 9.31607 5.94129 9.87868 5.37868C10.4413 4.81607 11.2044 4.5 12 4.5V3ZM7.5 7.5C7.5 8.69347 7.97411 9.83807 8.81802 10.682C9.66193 11.5259 10.8065 12 12 12V10.5C11.2044 10.5 10.4413 10.1839 9.87868 9.62132C9.31607 9.05871 9 8.29565 9 7.5H7.5ZM12 12C13.1935 12 14.3381 11.5259 15.182 10.682C16.0259 9.83807 16.5 8.69347 16.5 7.5H15C15 8.29565 14.6839 9.05871 14.1213 9.62132C13.5587 10.1839 12.7956 10.5 12 10.5V12ZM16.5 7.5C16.5 6.30653 16.0259 5.16193 15.182 4.31802C14.3381 3.47411 13.1935 3 12 3V4.5C12.7956 4.5 13.5587 4.81607 14.1213 5.37868C14.6839 5.94129 15 6.70435 15 7.5H16.5ZM4.5 21V18H3V21H4.5ZM4.5 18C4.5 17.2044 4.81607 16.4413 5.37868 15.8787C5.94129 15.3161 6.70435 15 7.5 15V13.5C6.30653 13.5 5.16193 13.9741 4.31802 14.818C3.47411 15.6619 3 16.8065 3 18H4.5ZM7.5 15H16.5V13.5H7.5V15ZM16.5 15C17.2956 15 18.0587 15.3161 18.6213 15.8787C19.1839 16.4413 19.5 17.2044 19.5 18H21C21 16.8065 20.5259 15.6619 19.682 14.818C18.8381 13.9741 17.6935 13.5 16.5 13.5V15ZM19.5 18V21H21V18H19.5Z" fill="white"/>
</svg>
