<svg width="434" height="98" viewBox="0 0 434 98" fill="none" xmlns="http://www.w3.org/2000/svg">
<path d="M42.948 73.518H21.71C16.052 73.518 13.182 71.386 13.182 67.04V37.438H9V24.482H13.182V21.12H30.238V24.482H51.476V37.438H30.238V60.316C30.238 60.398 30.32 60.48 30.402 60.48H34.338C34.42 60.48 34.502 60.398 34.502 60.316V40.8H51.476V67.04C51.476 71.386 48.606 73.518 42.948 73.518ZM136.249 89.836H85.4919C79.7519 89.836 76.8819 87.704 76.8819 83.358V34.404C76.8819 34.322 76.7999 34.24 76.7179 34.24H72.6999V73.518H55.6439V8H72.6999V21.12H85.4099C91.0679 21.12 93.9379 23.334 93.9379 27.762V76.634C93.9379 76.716 94.0199 76.798 94.1014 76.798H136.249V89.836ZM119.193 41.702V34.404C119.193 34.322 119.111 34.24 119.029 34.24H115.175C115.093 34.24 115.011 34.322 115.011 34.404V41.702H119.193ZM127.721 73.518H106.483C100.825 73.518 97.9554 71.386 97.9554 67.04V27.762C97.9554 23.334 100.825 21.12 106.483 21.12H127.721C133.379 21.12 136.249 23.334 136.249 27.762V53.92H115.011V60.316C115.011 60.398 115.093 60.48 115.175 60.48H119.029C119.111 60.48 119.193 60.398 119.193 60.316V57.2H136.249V67.04C136.249 71.386 133.379 73.518 127.721 73.518ZM169.968 73.518H148.73C143.072 73.518 140.202 71.386 140.202 67.04V57.2H157.258V60.316C157.258 60.398 157.34 60.48 157.422 60.48H161.276C161.358 60.48 161.44 60.398 161.44 60.316V54.084C161.44 54.002 161.358 53.92 161.276 53.92H148.73C143.072 53.92 140.202 51.706 140.202 47.278V27.762C140.202 23.334 143.072 21.12 148.73 21.12H169.968C175.626 21.12 178.496 23.334 178.496 27.762V37.438H161.44V34.404C161.44 34.322 161.358 34.24 161.276 34.24H157.422C157.34 34.24 157.258 34.322 157.258 34.404V40.636C157.258 40.718 157.34 40.8 157.422 40.8H169.968C175.626 40.8 178.496 42.932 178.496 47.278V67.04C178.496 71.386 175.626 73.518 169.968 73.518ZM263.255 89.836H212.415C206.675 89.836 203.805 87.704 203.805 83.358V34.404C203.805 34.322 203.723 34.24 203.641 34.24H199.787C199.705 34.24 199.623 34.322 199.623 34.404V73.518H182.567V21.12H199.623V24.482C202.493 22.268 206.757 21.12 212.333 21.12C217.991 21.12 220.861 23.334 220.861 27.762V76.634C220.861 76.716 220.943 76.798 221.025 76.798H263.255V89.836ZM254.727 73.518H233.489C227.831 73.518 224.961 71.386 224.961 67.04V21.12H242.017V60.316C242.017 60.398 242.099 60.48 242.181 60.48H246.035C246.117 60.48 246.199 60.398 246.199 60.316V21.12H263.255V67.04C263.255 71.386 260.385 73.518 254.727 73.518ZM297.052 73.518H275.814C270.156 73.518 267.286 71.386 267.286 67.04V57.2H284.342V60.316C284.342 60.398 284.424 60.48 284.506 60.48H288.36C288.442 60.48 288.524 60.398 288.524 60.316V54.084C288.524 54.002 288.442 53.92 288.36 53.92H275.814C270.156 53.92 267.286 51.706 267.286 47.278V27.762C267.286 23.334 270.156 21.12 275.814 21.12H297.052C302.71 21.12 305.58 23.334 305.58 27.762V37.438H288.524V34.404C288.524 34.322 288.442 34.24 288.36 34.24H284.506C284.424 34.24 284.342 34.322 284.342 34.404V40.636C284.342 40.718 284.424 40.8 284.506 40.8H297.052C302.71 40.8 305.58 42.932 305.58 47.278V67.04C305.58 71.386 302.71 73.518 297.052 73.518ZM348.027 89.836H309.651V21.12H326.707V76.798H348.027V89.836ZM348.027 73.518H330.971V21.12H348.027V73.518ZM369.227 73.518H352.171V27.762C352.171 23.416 355.041 21.12 360.699 21.12H384.151V34.24H369.391C369.309 34.24 369.227 34.322 369.227 34.404V37.438H383.987V50.558H369.227V73.518ZM408.561 41.702V34.404C408.561 34.322 408.479 34.24 408.397 34.24H404.543C404.461 34.24 404.379 34.322 404.379 34.404V41.702H408.561ZM417.089 73.518H395.851C390.193 73.518 387.323 71.386 387.323 67.04V27.762C387.323 23.334 390.193 21.12 395.851 21.12H417.089C422.747 21.12 425.617 23.334 425.617 27.762V53.92H404.379V60.316C404.379 60.398 404.461 60.48 404.543 60.48H408.397C408.479 60.48 408.561 60.398 408.561 60.316V57.2H425.617V67.04C425.617 71.386 422.747 73.518 417.089 73.518Z" fill="white"/>
<path fill-rule="evenodd" clip-rule="evenodd" d="M47.6107 72.8155C46.3523 73.2848 44.786 73.518 42.9148 73.518H21.6768C16.0188 73.518 13.1488 71.386 13.1488 67.04V37.438H8.9668V24.482H13.1488V21.12H30.2048V24.482H51.4428V37.438H30.2048V60.316C30.2048 60.398 30.2868 60.48 30.3688 60.48H34.3048C34.3868 60.48 34.4688 60.398 34.4688 60.316V40.8H51.4428V67.04C51.4428 69.9487 50.1572 71.8656 47.6107 72.8155ZM55.6107 73.518H72.6667V34.24H76.6847C76.7667 34.24 76.8487 34.322 76.8487 34.404V83.358C76.8487 87.704 79.7187 89.836 85.4587 89.836H136.216V76.798H94.0682C93.9867 76.798 93.9047 76.716 93.9047 76.634V27.762C93.9047 25.1377 92.8966 23.291 90.8974 22.222C89.5235 21.4873 87.6814 21.12 85.3767 21.12H72.6667V8H55.6107V73.518ZM47.6107 16.482V8C47.6107 3.58172 51.1924 0 55.6107 0H72.6667C77.085 0 80.6667 3.58172 80.6667 8V13.12H85.3767C88.7677 13.12 92.6343 13.7039 95.9135 15.9147C99.1926 13.7039 103.059 13.12 106.45 13.12H127.688C131.068 13.12 134.92 13.7001 138.193 15.893C141.465 13.7001 145.317 13.12 148.697 13.12H169.935C172.49 13.12 175.314 13.4514 177.954 14.56C179.252 13.6524 180.831 13.12 182.534 13.12H199.59C200.981 13.12 202.288 13.4747 203.427 14.0986C206.253 13.4082 209.254 13.12 212.3 13.12C214.861 13.12 217.692 13.4529 220.337 14.5676C221.637 13.6554 223.22 13.12 224.928 13.12H241.984C242.708 13.12 243.409 13.216 244.075 13.396C244.742 13.216 245.443 13.12 246.166 13.12H263.222C264.919 13.12 266.493 13.6484 267.787 14.5495C270.42 13.4493 273.235 13.12 275.781 13.12H297.019C299.574 13.12 302.398 13.4514 305.038 14.56C306.336 13.6524 307.915 13.12 309.618 13.12H326.674C327.413 13.12 328.127 13.22 328.806 13.4072C329.485 13.22 330.2 13.12 330.938 13.12H347.994C349.717 13.12 351.313 13.6648 352.619 14.5915C355.249 13.4715 358.075 13.12 360.666 13.12H384.118C385.677 13.12 387.131 13.5657 388.361 14.3366C390.837 13.4062 393.444 13.12 395.818 13.12H417.056C420.712 13.12 424.921 13.7987 428.35 16.4632C432.158 19.4219 433.584 23.6829 433.584 27.762V53.92C433.584 54.4821 433.526 55.0306 433.416 55.56C433.526 56.0894 433.584 56.6379 433.584 57.2V67.04C433.584 71.1379 432.114 75.3839 428.264 78.2922C424.839 80.8796 420.66 81.518 417.056 81.518H395.818C392.215 81.518 388.036 80.8796 384.61 78.2922C380.76 75.3839 379.29 71.138 379.29 67.04V58.558H377.194V73.518C377.194 77.9363 373.612 81.518 369.194 81.518H355.994V89.836C355.994 94.2543 352.412 97.836 347.994 97.836H309.618C305.2 97.836 301.618 94.2543 301.618 89.836V81.1118C300.05 81.4121 298.487 81.518 297.019 81.518H275.781C274.326 81.518 272.777 81.4139 271.222 81.1195V89.836C271.222 94.2543 267.64 97.836 263.222 97.836H212.382C208.758 97.836 204.563 97.2052 201.125 94.6267C197.246 91.7181 195.772 87.46 195.772 83.358V81.518H182.534C180.841 81.518 179.271 80.9921 177.978 80.0947C175.323 81.1983 172.485 81.518 169.935 81.518H148.697C147.267 81.518 145.745 81.4174 144.216 81.1341V89.836C144.216 94.2543 140.634 97.836 136.216 97.836H85.4587C81.8349 97.836 77.6391 97.2052 74.2012 94.6267C70.323 91.7181 68.8487 87.46 68.8487 83.358V81.518H55.6107C53.9018 81.518 52.3181 80.9822 51.0183 80.0694C48.3458 81.1935 45.484 81.518 42.9148 81.518H21.6768C18.0733 81.518 13.8942 80.8796 10.469 78.2922C6.61904 75.3839 5.1488 71.1379 5.1488 67.04V44.4699C2.65758 43.1144 0.966797 40.4736 0.966797 37.438V24.482C0.966797 20.9855 3.20998 18.0128 6.33576 16.9247C7.74463 14.6416 10.269 13.12 13.1488 13.12H30.2048C32.8941 13.12 35.2736 14.447 36.7239 16.482H47.6107ZM143.254 72.4908C144.619 73.1773 146.436 73.518 148.697 73.518H169.935C171.759 73.518 173.293 73.2965 174.534 72.8509C177.145 71.9138 178.463 69.9853 178.463 67.04V47.278C178.463 46.6129 178.396 45.9997 178.262 45.438C177.802 43.5123 176.555 42.1926 174.534 41.4671C173.293 41.0215 171.759 40.8 169.935 40.8H157.389C157.307 40.8 157.225 40.718 157.225 40.636V34.404C157.225 34.322 157.307 34.24 157.389 34.24H161.243C161.325 34.24 161.407 34.322 161.407 34.404V37.438H178.463V27.762C178.463 24.7611 177.145 22.7771 174.534 21.8099C173.293 21.35 171.759 21.12 169.935 21.12H148.697C146.422 21.12 144.598 21.4779 143.23 22.1936C141.195 23.2582 140.169 25.1143 140.169 27.762V47.278C140.169 47.9732 140.24 48.6139 140.381 49.2C140.523 49.7894 140.736 50.3236 141.021 50.8027C141.438 51.5066 142.009 52.0913 142.732 52.5568C143.17 52.8394 143.665 53.0781 144.216 53.2728C145.437 53.7043 146.931 53.92 148.697 53.92H161.243C161.325 53.92 161.407 54.002 161.407 54.084V60.316C161.407 60.398 161.325 60.48 161.243 60.48H157.389C157.307 60.48 157.225 60.398 157.225 60.316V57.2H140.169V67.04C140.169 68.3328 140.423 69.4296 140.929 70.3327C141.363 71.1076 141.982 71.7398 142.785 72.2308C142.935 72.3224 143.091 72.409 143.254 72.4908ZM136.034 68.798C136.155 68.2588 136.216 67.6729 136.216 67.04V57.2H119.16V60.316C119.16 60.398 119.078 60.48 118.996 60.48H115.142C115.06 60.48 114.978 60.398 114.978 60.316V53.92H136.216V27.762C136.216 25.1143 135.19 23.2581 133.155 22.1936C131.787 21.4779 129.963 21.12 127.688 21.12H106.45C104.146 21.12 102.303 21.4873 100.929 22.222C98.9303 23.291 97.9222 25.1377 97.9222 27.762V67.04C97.9222 67.6729 97.9831 68.2588 98.1045 68.798C98.2258 69.3363 98.4074 69.8281 98.6493 70.2736C99.0889 71.0836 99.7274 71.7406 100.563 72.246C100.965 72.4889 101.412 72.6968 101.905 72.8699C103.137 73.3028 104.653 73.518 106.45 73.518H127.688C129.95 73.518 131.766 73.1773 133.132 72.4908C134.685 71.7099 135.655 70.4815 136.034 68.798ZM182.534 73.518H199.59V34.404C199.59 34.322 199.672 34.24 199.754 34.24H203.608C203.69 34.24 203.772 34.322 203.772 34.404V83.358C203.772 87.704 206.642 89.836 212.382 89.836H263.222V76.798H220.992C220.91 76.798 220.828 76.716 220.828 76.634V27.762C220.828 24.7722 219.52 22.7918 216.928 21.8207C215.682 21.3536 214.138 21.12 212.3 21.12C210.609 21.12 209.038 21.2256 207.59 21.4346C204.265 21.9146 201.59 22.9396 199.59 24.482V21.12H182.534V73.518ZM260.203 72.4575C261.718 71.6752 262.666 70.4578 263.04 68.798C263.161 68.2588 263.222 67.6729 263.222 67.04V21.12H246.166V60.316C246.166 60.398 246.084 60.48 246.002 60.48H242.148C242.066 60.48 241.984 60.398 241.984 60.316V21.12H224.928V67.04C224.928 67.6729 224.989 68.2588 225.111 68.798C225.241 69.3779 225.442 69.9038 225.712 70.3761C226.123 71.0928 226.694 71.6858 227.425 72.1562C227.841 72.4239 228.309 72.6519 228.828 72.8404C230.075 73.2931 231.618 73.518 233.456 73.518H254.694C256.992 73.518 258.83 73.1663 260.203 72.4575ZM267.465 49.2C267.936 51.1565 269.193 52.5048 271.222 53.2448C272.457 53.6949 273.977 53.92 275.781 53.92H288.327C288.409 53.92 288.491 54.002 288.491 54.084V60.316C288.491 60.398 288.409 60.48 288.327 60.48H284.473C284.391 60.48 284.309 60.398 284.309 60.316V57.2H267.253V67.04C267.253 68.3819 267.527 69.5127 268.072 70.4348C268.475 71.1182 269.028 71.6869 269.729 72.1421C269.901 72.2541 270.082 72.3592 270.272 72.4575C271.645 73.1663 273.483 73.518 275.781 73.518H297.019C298.843 73.518 300.377 73.2965 301.618 72.8509C304.229 71.9138 305.547 69.9853 305.547 67.04V47.278C305.547 46.6129 305.48 45.9997 305.346 45.438C304.886 43.5123 303.639 42.1926 301.618 41.4671C300.377 41.0215 298.843 40.8 297.019 40.8H284.473C284.391 40.8 284.309 40.718 284.309 40.636V34.404C284.309 34.322 284.391 34.24 284.473 34.24H288.327C288.409 34.24 288.491 34.322 288.491 34.404V37.438H305.547V27.762C305.547 24.7611 304.229 22.7771 301.618 21.8099C300.377 21.35 298.843 21.12 297.019 21.12H275.781C273.977 21.12 272.457 21.3451 271.222 21.7952C268.585 22.7569 267.253 24.7458 267.253 27.762V47.278C267.253 47.9732 267.324 48.6139 267.465 49.2ZM309.618 89.836H347.994V76.798H326.674V21.12H309.618V89.836ZM330.938 73.518H347.994V21.12H330.938V73.518ZM352.138 73.518H369.194V50.558H383.954V37.438H369.194V34.404C369.194 34.322 369.276 34.24 369.358 34.24H384.118V21.12H360.666C358.807 21.12 357.249 21.368 355.994 21.8552C353.432 22.8505 352.138 24.8442 352.138 27.762V73.518ZM387.29 67.04C387.29 71.386 390.16 73.518 395.818 73.518H417.056C422.714 73.518 425.584 71.386 425.584 67.04V57.2H408.528V60.316C408.528 60.398 408.446 60.48 408.364 60.48H404.51C404.428 60.48 404.346 60.398 404.346 60.316V53.92H425.584V27.762C425.584 23.334 422.714 21.12 417.056 21.12H395.818C394.412 21.12 393.179 21.2567 392.118 21.5301C388.911 22.357 387.29 24.4343 387.29 27.762V67.04ZM114.978 41.702H119.16V34.404C119.16 34.322 119.078 34.24 118.996 34.24H115.142C115.06 34.24 114.978 34.322 114.978 34.404V41.702ZM404.346 41.702H408.528V34.404C408.528 34.322 408.446 34.24 408.364 34.24H404.51C404.428 34.24 404.346 34.322 404.346 34.404V41.702Z" fill="black"/>
</svg>
