<svg width="446" height="111" viewBox="0 0 446 111" fill="none" xmlns="http://www.w3.org/2000/svg">
<g filter="url(#filter0_dd_4_660)">
<path d="M48.9156 80H27.6776C22.0196 80 19.1496 77.868 19.1496 73.522V43.92H14.9676V30.964H19.1496V27.602H36.2056V30.964H57.4436V43.92H36.2056V66.798C36.2056 66.88 36.2876 66.962 36.3696 66.962H40.3056C40.3876 66.962 40.4696 66.88 40.4696 66.798V47.282H57.4436V73.522C57.4436 77.868 54.5736 80 48.9156 80ZM142.217 96.318H91.4595C85.7195 96.318 82.8495 94.186 82.8495 89.84V40.886C82.8495 40.804 82.7675 40.722 82.6855 40.722H78.6675V80H61.6115V14.482H78.6675V27.602H91.3775C97.0355 27.602 99.9055 29.816 99.9055 34.244V83.116C99.9055 83.198 99.9875 83.28 100.069 83.28H142.217V96.318ZM125.161 48.184V40.886C125.161 40.804 125.079 40.722 124.997 40.722H121.143C121.061 40.722 120.979 40.804 120.979 40.886V48.184H125.161ZM133.689 80H112.451C106.793 80 103.923 77.868 103.923 73.522V34.244C103.923 29.816 106.793 27.602 112.451 27.602H133.689C139.347 27.602 142.217 29.816 142.217 34.244V60.402H120.979V66.798C120.979 66.88 121.061 66.962 121.143 66.962H124.997C125.079 66.962 125.161 66.88 125.161 66.798V63.682H142.217V73.522C142.217 77.868 139.347 80 133.689 80ZM175.936 80H154.698C149.04 80 146.17 77.868 146.17 73.522V63.682H163.226V66.798C163.226 66.88 163.308 66.962 163.39 66.962H167.244C167.326 66.962 167.408 66.88 167.408 66.798V60.566C167.408 60.484 167.326 60.402 167.244 60.402H154.698C149.04 60.402 146.17 58.188 146.17 53.76V34.244C146.17 29.816 149.04 27.602 154.698 27.602H175.936C181.594 27.602 184.464 29.816 184.464 34.244V43.92H167.408V40.886C167.408 40.804 167.326 40.722 167.244 40.722H163.39C163.308 40.722 163.226 40.804 163.226 40.886V47.118C163.226 47.2 163.308 47.282 163.39 47.282H175.936C181.594 47.282 184.464 49.414 184.464 53.76V73.522C184.464 77.868 181.594 80 175.936 80ZM269.223 96.318H218.383C212.643 96.318 209.773 94.186 209.773 89.84V40.886C209.773 40.804 209.691 40.722 209.609 40.722H205.755C205.673 40.722 205.591 40.804 205.591 40.886V80H188.535V27.602H205.591V30.964C208.461 28.75 212.725 27.602 218.301 27.602C223.959 27.602 226.829 29.816 226.829 34.244V83.116C226.829 83.198 226.911 83.28 226.993 83.28H269.223V96.318ZM260.695 80H239.457C233.799 80 230.929 77.868 230.929 73.522V27.602H247.985V66.798C247.985 66.88 248.067 66.962 248.149 66.962H252.003C252.085 66.962 252.167 66.88 252.167 66.798V27.602H269.223V73.522C269.223 77.868 266.353 80 260.695 80ZM303.02 80H281.782C276.124 80 273.254 77.868 273.254 73.522V63.682H290.31V66.798C290.31 66.88 290.392 66.962 290.474 66.962H294.328C294.41 66.962 294.492 66.88 294.492 66.798V60.566C294.492 60.484 294.41 60.402 294.328 60.402H281.782C276.124 60.402 273.254 58.188 273.254 53.76V34.244C273.254 29.816 276.124 27.602 281.782 27.602H303.02C308.678 27.602 311.548 29.816 311.548 34.244V43.92H294.492V40.886C294.492 40.804 294.41 40.722 294.328 40.722H290.474C290.392 40.722 290.31 40.804 290.31 40.886V47.118C290.31 47.2 290.392 47.282 290.474 47.282H303.02C308.678 47.282 311.548 49.414 311.548 53.76V73.522C311.548 77.868 308.678 80 303.02 80ZM353.995 96.318H315.619V27.602H332.675V83.28H353.995V96.318ZM353.995 80H336.939V27.602H353.995V80ZM375.195 80H358.139V34.244C358.139 29.898 361.009 27.602 366.667 27.602H390.119V40.722H375.359C375.277 40.722 375.195 40.804 375.195 40.886V43.92H389.955V57.04H375.195V80ZM414.529 48.184V40.886C414.529 40.804 414.447 40.722 414.365 40.722H410.511C410.429 40.722 410.347 40.804 410.347 40.886V48.184H414.529ZM423.057 80H401.819C396.161 80 393.291 77.868 393.291 73.522V34.244C393.291 29.816 396.161 27.602 401.819 27.602H423.057C428.715 27.602 431.585 29.816 431.585 34.244V60.402H410.347V66.798C410.347 66.88 410.429 66.962 410.511 66.962H414.365C414.447 66.962 414.529 66.88 414.529 66.798V63.682H431.585V73.522C431.585 77.868 428.715 80 423.057 80Z" fill="white"/>
</g>
<defs>
<filter id="filter0_dd_4_660" x="0.96759" y="0.481995" width="444.618" height="109.836" filterUnits="userSpaceOnUse" color-interpolation-filters="sRGB">
<feFlood flood-opacity="0" result="BackgroundImageFix"/>
<feColorMatrix in="SourceAlpha" type="matrix" values="0 0 0 0 0 0 0 0 0 0 0 0 0 0 0 0 0 0 127 0" result="hardAlpha"/>
<feOffset/>
<feGaussianBlur stdDeviation="7"/>
<feComposite in2="hardAlpha" operator="out"/>
<feColorMatrix type="matrix" values="0 0 0 0 0 0 0 0 0 0 0 0 0 0 0 0 0 0 1 0"/>
<feBlend mode="normal" in2="BackgroundImageFix" result="effect1_dropShadow_4_660"/>
<feColorMatrix in="SourceAlpha" type="matrix" values="0 0 0 0 0 0 0 0 0 0 0 0 0 0 0 0 0 0 127 0" result="hardAlpha"/>
<feOffset/>
<feGaussianBlur stdDeviation="6"/>
<feComposite in2="hardAlpha" operator="out"/>
<feColorMatrix type="matrix" values="0 0 0 0 0 0 0 0 0 0 0 0 0 0 0 0 0 0 1 0"/>
<feBlend mode="normal" in2="effect1_dropShadow_4_660" result="effect2_dropShadow_4_660"/>
<feBlend mode="normal" in="SourceGraphic" in2="effect2_dropShadow_4_660" result="shape"/>
</filter>
</defs>
</svg>
